<?xml version="1.0" standalone="no"?><!DOCTYPE svg PUBLIC "-//W3C//DTD SVG 1.1//EN" "http://www.w3.org/Graphics/SVG/1.1/DTD/svg11.dtd"><svg t="1609826529467" class="icon" viewBox="0 0 1024 1024" version="1.1" xmlns="http://www.w3.org/2000/svg" p-id="9347" xmlns:xlink="http://www.w3.org/1999/xlink" width="32" height="32"><defs><style type="text/css"></style></defs><path d="M862.646 944.443h-692.714c-42.901 0-78.368-34.894-78.368-78.368v-645.235c0-42.901 34.894-78.368 78.368-78.368h288.297c15.443 0 28.603 12.585 28.603 28.603s-12.585 28.603-28.603 28.603h-288.297c-12.014 0-21.737 9.726-21.737 21.737v644.662c0 12.014 9.726 21.737 21.737 21.737h692.714c12.014 0 21.737-9.726 21.737-21.737v-280.287c0-15.443 12.585-28.603 28.603-28.603s28.603 12.585 28.603 28.603v280.287c-1.146 42.901-36.038 78.368-78.938 78.368z" p-id="9348" fill="#fd7e14"></path><path d="M364.42 820.316c-15.443 0-28.028-12.585-28.603-28.028-2.288-175.037 33.75-298.021 110.399-375.813 69.213-70.359 171.605-106.397 321.473-112.115 17.731-0.571 56.058 0.571 86.947 1.146 13.155 0.571 24.595 0.571 32.605 1.146 15.443 0 28.028 13.155 28.028 28.603 0 15.443-13.155 28.028-28.603 28.028 0 0-0.571 0-0.571 0-8.011 0-20.021-0.571-33.179-1.146-28.603-0.571-67.498-2.288-82.942-1.146-229.952 9.151-382.108 85.804-377.531 430.729 0.571 15.443-12.014 28.028-28.028 28.603 0 0 0 0 0 0z" p-id="9349" fill="#fd7e14"></path><path d="M706.486 611.53c-6.293 0-12.585-1.716-17.731-6.293-12.014-9.726-14.299-27.457-4.576-40.039l181.901-229.952-183.618-212.218c-10.297-12.014-9.151-29.744 2.86-40.039s29.744-9.151 40.039 2.86l199.062 229.952c9.151 10.297 9.151 25.741 0.571 36.038l-196.774 248.256c-5.149 7.438-13.728 11.439-21.737 11.439z" p-id="9350" fill="#fd7e14"></path></svg>