<svg xmlns="http://www.w3.org/2000/svg" xmlns:xlink="http://www.w3.org/1999/xlink" width="375" height="667" viewBox="0 0 375 667">
  <defs>
    <radialGradient id="radial-gradient" cx="0.5" cy="0.5" r="3.219" gradientTransform="matrix(0.838, 0.546, -0.304, 0.467, 0.233, -0.006)" gradientUnits="objectBoundingBox">
      <stop offset="0" stop-color="#fff"/>
      <stop offset="1" stop-color="#00b1ff"/>
    </radialGradient>
    <clipPath id="clip-background">
      <rect width="375" height="667"/>
    </clipPath>
  </defs>
  <g id="background" clip-path="url(#clip-background)">
    <rect width="375" height="667" fill="url(#radial-gradient)"/>
    <g id="组_1708" data-name="组 1708">
      <line id="直线_12" data-name="直线 12" x2="61" y2="252" transform="translate(309.5 192.5)" fill="none" stroke="#c5eaff" stroke-width="1"/>
      <path id="路径_12993" data-name="路径 12993" d="M-216.112,228.1a3.543,3.543,0,0,1-3.543,3.543A3.542,3.542,0,0,1-223.2,228.1a3.542,3.542,0,0,1,3.541-3.543A3.543,3.543,0,0,1-216.112,228.1Z" transform="translate(410.567 -39)" fill="#ceebff"/>
      <path id="路径_12994" data-name="路径 12994" d="M-144.044,330.307a5.411,5.411,0,0,1-5.412,5.411,5.411,5.411,0,0,1-5.41-5.411,5.41,5.41,0,0,1,5.41-5.413A5.411,5.411,0,0,1-144.044,330.307Z" transform="translate(225.567 -87)" fill="#ceebff"/>
      <path id="路径_13049" data-name="路径 13049" d="M-216.112,228.1a3.543,3.543,0,0,1-3.543,3.543A3.542,3.542,0,0,1-223.2,228.1a3.542,3.542,0,0,1,3.541-3.543A3.543,3.543,0,0,1-216.112,228.1Z" transform="translate(560.567 29)" fill="#ceebff"/>
      <path id="路径_13055" data-name="路径 13055" d="M-216.112,228.1a3.543,3.543,0,0,1-3.543,3.543A3.542,3.542,0,0,1-223.2,228.1a3.542,3.542,0,0,1,3.541-3.543A3.543,3.543,0,0,1-216.112,228.1Z" transform="translate(299.567 -151)" fill="#ceebff"/>
      <path id="路径_13058" data-name="路径 13058" d="M-216.112,228.1a3.543,3.543,0,0,1-3.543,3.543A3.542,3.542,0,0,1-223.2,228.1a3.542,3.542,0,0,1,3.541-3.543A3.543,3.543,0,0,1-216.112,228.1Z" transform="translate(538.567 -131)" fill="#ceebff" opacity="0.47"/>
      <path id="路径_13065" data-name="路径 13065" d="M-144.044,330.307a5.411,5.411,0,0,1-5.412,5.411,5.411,5.411,0,0,1-5.41-5.411,5.41,5.41,0,0,1,5.41-5.413A5.411,5.411,0,0,1-144.044,330.307Z" transform="translate(435.567 121)" fill="#ceebff"/>
      <path id="路径_13069" data-name="路径 13069" d="M-144.044,330.307a5.411,5.411,0,0,1-5.412,5.411,5.411,5.411,0,0,1-5.41-5.411,5.41,5.41,0,0,1,5.41-5.413A5.411,5.411,0,0,1-144.044,330.307Z" transform="translate(280.567 -166)" fill="#ceebff"/>
      <path id="路径_13070" data-name="路径 13070" d="M-144.044,330.307a5.411,5.411,0,0,1-5.412,5.411,5.411,5.411,0,0,1-5.41-5.411,5.41,5.41,0,0,1,5.41-5.413A5.411,5.411,0,0,1-144.044,330.307Z" transform="translate(488.567 26)" fill="#ceebff"/>
      <line id="直线_11" data-name="直线 11" x2="6" y2="334" transform="translate(331.5 168.5)" fill="none" stroke="#c2e9ff" stroke-width="1"/>
      <line id="直线_9" data-name="直线 9" x1="230" y2="25" transform="translate(100.5 527.5)" fill="none" stroke="#c2e9ff" stroke-width="1"/>
      <line id="直线_10" data-name="直线 10" y1="69" x2="246.089" transform="translate(68.411 509.5)" fill="none" stroke="#c2e9ff" stroke-width="1"/>
      <line id="直线_7" data-name="直线 7" x2="172.089" y2="10" transform="translate(68.411 578.5)" fill="none" stroke="#c2e9ff" stroke-width="1"/>
      <line id="直线_8" data-name="直线 8" x1="23" y2="38" transform="translate(307.5 521.5)" fill="none" stroke="#c2e9ff" stroke-width="1"/>
      <g id="组_1697" data-name="组 1697">
        <g id="组_1696" data-name="组 1696">
          <path id="路径_13426" data-name="路径 13426" d="M67,0c37,0,67,29.1,67,65s-30,65-67,65S0,100.9,0,65,30,0,67,0Z" transform="translate(-33 474)" fill="#ccebfd"/>
          <g id="组_1691" data-name="组 1691" transform="translate(581.201 497.271) rotate(17)" opacity="0.21">
            <g id="组_1610" data-name="组 1610" transform="translate(-558.098 154.809)">
              <g id="组_1607" data-name="组 1607">
                <g id="组_1605" data-name="组 1605" transform="translate(29.39)">
                  <path id="路径_12864" data-name="路径 12864" d="M-482.651,178.1l-4.854-.48,1.05-10.638a5.23,5.23,0,0,0-4.687-5.716l-15.724-1.555a5.232,5.232,0,0,0-5.716,4.689l-1.052,10.637-4.856-.481,1.053-10.636a10.12,10.12,0,0,1,11.051-9.066l15.723,1.555a10.121,10.121,0,0,1,9.065,11.054Z" transform="translate(518.49 -154.809)" fill="#fff"/>
                </g>
                <g id="组_1606" data-name="组 1606" transform="translate(0 13.965)">
                  <path id="路径_12865" data-name="路径 12865" d="M-473.183,232.336a6.955,6.955,0,0,1-7.593,6.2l-71.061-6.99a6.938,6.938,0,0,1-6.227-7.556L-553.2,175a6.953,6.953,0,0,1,7.593-6.195l71.059,6.991a6.939,6.939,0,0,1,6.228,7.555Z" transform="translate(558.098 -168.773)" fill="#446dc1"/>
                  <path id="路径_12866" data-name="路径 12866" d="M-545.759,168.806a6.851,6.851,0,0,0-7.5,6.065l-4.807,47.962a6.734,6.734,0,0,0-.015,1.042,7.179,7.179,0,0,0,1.039.192l70.165,6.842a6.851,6.851,0,0,0,7.5-6.066l4.807-47.962a6.691,6.691,0,0,0,.014-1.04,6.543,6.543,0,0,0-1.039-.191Z" transform="translate(558.098 -168.773)" fill="#4d7dde"/>
                </g>
              </g>
              <g id="组_1609" data-name="组 1609" transform="translate(31.151 33.45)">
                <path id="路径_12869" data-name="路径 12869" d="M-490.2,207.336l-8.539-.844.845-8.539-9.531-.943-.845,8.541-8.538-.844-.942,9.527,8.537.845-.845,8.54,9.532.942.845-8.541,8.538.845Z" transform="translate(517.75 -197.011)" fill="#fff"/>
              </g>
            </g>
          </g>
        </g>
      </g>
      <path id="路径_13066" data-name="路径 13066" d="M-144.044,330.307a5.411,5.411,0,0,1-5.412,5.411,5.411,5.411,0,0,1-5.41-5.411,5.41,5.41,0,0,1,5.41-5.413A5.411,5.411,0,0,1-144.044,330.307Z" transform="translate(274.567 224)" fill="#ceebff"/>
      <path id="路径_13067" data-name="路径 13067" d="M-144.044,330.307a5.411,5.411,0,0,1-5.412,5.411,5.411,5.411,0,0,1-5.41-5.411,5.41,5.41,0,0,1,5.41-5.413A5.411,5.411,0,0,1-144.044,330.307Z" transform="translate(239.567 297)" fill="#ceebff"/>
      <g id="组_1699" data-name="组 1699">
        <g id="组_1694" data-name="组 1694">
          <ellipse id="椭圆_383" data-name="椭圆 383" cx="48.5" cy="49" rx="48.5" ry="49" transform="matrix(1, -0.017, 0.017, 1, 299.084, 434.064)" fill="#ccebfd"/>
          <path id="路径_13154" data-name="路径 13154" d="M140.231,167.374v-1.568H123.947a6.665,6.665,0,0,0-6.665,6.665v12.638a6.665,6.665,0,0,0,6.665,6.665h6.387l.022,7.892,7.3-7.892h8.406a6.665,6.665,0,0,0,6.665-6.665v-9.417h-4.181A8.327,8.327,0,0,1,140.231,167.374Zm30.435-19.3H148.549a6.666,6.666,0,0,0-6.665,6.665v12.639a6.664,6.664,0,0,0,6.665,6.664h8.4l7.3,7.893.022-7.893h6.387a6.664,6.664,0,0,0,6.665-6.664V154.735A6.666,6.666,0,0,0,170.666,148.07Zm-21.318,16.518a3.247,3.247,0,1,1,3.248-3.247A3.247,3.247,0,0,1,149.348,164.588Zm10.26,0a3.247,3.247,0,1,1,3.247-3.247A3.248,3.248,0,0,1,159.608,164.588Zm10.259,0a3.247,3.247,0,1,1,3.247-3.247A3.248,3.248,0,0,1,169.867,164.588Z" transform="translate(196.979 308.423)" fill="#e8f5ff"/>
        </g>
      </g>
      <g id="组_1698" data-name="组 1698">
        <g id="组_1695" data-name="组 1695">
          <ellipse id="椭圆_384" data-name="椭圆 384" cx="53" cy="55.5" rx="53" ry="55.5" transform="translate(233 545)" fill="#ccebfd"/>
          <g id="组_1693" data-name="组 1693" transform="translate(60.412 405.767)">
            <path id="路径_13162" data-name="路径 13162" d="M0,0H29.6V33.485H0Z" transform="translate(210.588 173.528)" fill="none"/>
            <g id="组_1692" data-name="组 1692" transform="translate(214.37 181.459)">
              <path id="路径_13156" data-name="路径 13156" d="M257.23,266.322a2.04,2.04,0,1,0-2.039,1.992A2.016,2.016,0,0,0,257.23,266.322Z" transform="translate(-244.173 -250.691)" fill="#eef8ff"/>
              <path id="路径_13157" data-name="路径 13157" d="M243.789,249.794a.869.869,0,0,0,1.162.049,5.618,5.618,0,0,1,7.027,0,.868.868,0,0,0,1.161-.049h0a.812.812,0,0,0-.049-1.2,7.341,7.341,0,0,0-9.252,0,.813.813,0,0,0-.049,1.2Z" transform="translate(-237.447 -238.399)" fill="#eef8ff"/>
              <path id="路径_13158" data-name="路径 13158" d="M234.1,237.049a.854.854,0,0,0,1.158.05,9.861,9.861,0,0,1,12.844,0,.855.855,0,0,0,1.159-.05h0a.821.821,0,0,0-.049-1.206,11.586,11.586,0,0,0-15.063,0,.821.821,0,0,0-.049,1.206Z" transform="translate(-230.667 -228.578)" fill="#eef8ff"/>
              <path id="路径_13159" data-name="路径 13159" d="M223.441,223.008a.857.857,0,0,0,1.17.043,14.521,14.521,0,0,1,19.218,0A.857.857,0,0,0,245,223h0a.823.823,0,0,0-.049-1.2,16.25,16.25,0,0,0-21.46,0,.823.823,0,0,0-.048,1.2Z" transform="translate(-223.202 -217.756)" fill="#eef8ff"/>
            </g>
            <path id="路径_13160" data-name="路径 13160" d="M240.185,214.969a3.789,3.789,0,0,1-3.855,3.719H214.443a3.789,3.789,0,0,1-3.855-3.719V170.146a3.789,3.789,0,0,1,3.855-3.719H236.33a3.789,3.789,0,0,1,3.855,3.719Z" fill="none" stroke="#eef8ff" stroke-miterlimit="10" stroke-width="3"/>
            <line id="直线_14" data-name="直线 14" x2="11" transform="translate(220.088 167.733)" fill="none" stroke="#eef8ff" stroke-linecap="round" stroke-miterlimit="10" stroke-width="3"/>
            <line id="直线_15" data-name="直线 15" x2="29.597" transform="translate(210.588 207.013)" fill="none" stroke="#eef8ff" stroke-miterlimit="10" stroke-width="3"/>
            <path id="路径_13161" data-name="路径 13161" d="M257.131,323.189a2.11,2.11,0,1,1-2.11-2.061A2.086,2.086,0,0,1,257.131,323.189Z" transform="translate(-29.634 -109.396)" fill="#eef8ff"/>
          </g>
        </g>
      </g>
      <path id="路径_13432" data-name="路径 13432" d="M-144.044,330.307a5.411,5.411,0,0,1-5.412,5.411,5.411,5.411,0,0,1-5.41-5.411,5.41,5.41,0,0,1,5.41-5.413A5.411,5.411,0,0,1-144.044,330.307Z" transform="translate(168.567 78)" fill="#ceebff"/>
    </g>
  </g>
</svg>
