<svg xmlns="http://www.w3.org/2000/svg" xmlns:xlink="http://www.w3.org/1999/xlink" width="148" height="232" viewBox="0 0 148 232">
  <defs>
    <linearGradient id="linear-gradient" x1="1" y1="0.5" x2="0" y2="0.5" gradientUnits="objectBoundingBox">
      <stop offset="0.005" stop-color="#f7f7f7"/>
      <stop offset="1" stop-color="#d9d9d9"/>
    </linearGradient>
    <linearGradient id="linear-gradient-2" x1="0.476" y1="0.211" x2="0.533" y2="0.675" gradientUnits="objectBoundingBox">
      <stop offset="0" stop-color="#73baf1"/>
      <stop offset="0.36" stop-color="#b8d3fb"/>
      <stop offset="0.505" stop-color="#c4dcff"/>
      <stop offset="1" stop-color="#4e87db"/>
    </linearGradient>
    <linearGradient id="linear-gradient-3" x1="1.016" y1="0.517" x2="-0.042" y2="0.483" gradientUnits="objectBoundingBox">
      <stop offset="0" stop-color="#bff4ff"/>
      <stop offset="1" stop-color="#74adce"/>
    </linearGradient>
    <linearGradient id="linear-gradient-4" x1="0.915" y1="0.501" x2="0.077" y2="0.499" gradientUnits="objectBoundingBox">
      <stop offset="0" stop-color="#5f99e5"/>
      <stop offset="0.526" stop-color="#b6eafe"/>
      <stop offset="1" stop-color="#73cbec"/>
    </linearGradient>
    <clipPath id="clip-doctor">
      <rect width="148" height="232"/>
    </clipPath>
  </defs>
  <g id="doctor" clip-path="url(#clip-doctor)">
    <g id="组_1709" data-name="组 1709" transform="translate(-187 -19)">
      <path id="路径_12796" data-name="路径 12796" d="M253.941,80.817l-37.254-2.025-12.5-.679.266-.125,12.377.676,37.254,2.025.038.012a13.168,13.168,0,0,0,4.5-.418,7.2,7.2,0,0,0,2.232-1.556l.179.018a8.708,8.708,0,0,1-2.411,1.666c-1.468.627-4.682.418-4.682.418Z" transform="matrix(0.996, -0.087, 0.087, 0.996, -3.729, 81.708)" fill="url(#linear-gradient)"/>
      <path id="路径_5124" data-name="路径 5124" d="M.094,1.368S3.139.987,4.8.966s5.492-.4,6.386-.549c0,0-4.976.13-6.441.143A21.847,21.847,0,0,0,.094,1.368Z" transform="translate(270.109 176.607) rotate(161)" fill="#d88d64"/>
      <path id="路径_5125" data-name="路径 5125" d="M3.669.137A8.409,8.409,0,0,0,.836,1.585a3.031,3.031,0,0,0-.618,1.58,5.736,5.736,0,0,1-.06-2.01Z" transform="translate(274.248 179.693) rotate(161)" fill="#d88d64"/>
      <path id="路径_5126" data-name="路径 5126" d="M4.3.161A18.489,18.489,0,0,0,1.361,1.45,3.5,3.5,0,0,0,.126,3.056,4.027,4.027,0,0,1,.791,1.179Z" transform="translate(276.519 183.854) rotate(161)" fill="#d88d64"/>
      <path id="路径_5127" data-name="路径 5127" d="M4.39.164a18.421,18.421,0,0,0-2.942,1.29A4.056,4.056,0,0,0,.131,3.178a4.437,4.437,0,0,1,.747-2Z" transform="translate(277.635 187.461) rotate(161)" fill="#d88d64"/>
      <path id="路径_5128" data-name="路径 5128" d="M.522,1.441S-.078.329.894.226L1.042.039.019.329A1.4,1.4,0,0,0,.522,1.441Z" transform="translate(269.7 175.649) rotate(161)" fill="#d88d64"/>
      <g id="组_1704" data-name="组 1704">
        <g id="组_1707" data-name="组 1707">
          <path id="路径_13415" data-name="路径 13415" d="M273.21,181.961c4.9-6.031,33.712-12.952,33.712-12.952l-3.07,6.414s.232,10.382,0,25.982c-.474,31.787.33,82.992.877,97.473l.011,24.011h-33.8l4.272-58.237c-5.757-1.421-12.731-2-18.444-4.079-4.152-1.513-9.814-6.5-9.814-6.5a60.66,60.66,0,0,1-1.249-12.444c0-3.226,7.093-17.68,12.756-29.926C265.022,197.509,270.538,185.248,273.21,181.961Z" transform="translate(-55.828 -74.825)" fill="#fff"/>
          <path id="路径_13417" data-name="路径 13417" d="M258.693,243.13l0,0,3.958-31.526-1.228,32.525C274.7,249.03,289,254.887,289,254.887s-7.6-1.9-16.931-4.324-26.675-11.89-26.675-11.89C248.934,239.687,253.66,241.3,258.693,243.13Z" transform="translate(-48.843 -79.707)" fill="#8fa7d7" opacity="0.24"/>
          <g id="组_1702" data-name="组 1702">
            <path id="路径_5117" data-name="路径 5117" d="M206.616,169.434a39.184,39.184,0,0,1,10.193,7.08c2.3,2.33,3.315,2.749,4.177,2.553.835-.19,1.76-.846,4.641-3.384,4.422-3.9,11.69-5.892,11.69-5.892V151.707H206.829Z" transform="translate(43.161 -67.376)" fill="#fed5ba"/>
            <path id="路径_5118" data-name="路径 5118" d="M206.616,155.283c2.751,5.326,13.513,9.51,15.252,9.51s10.88-3.214,15.233-9.421v-8.2H206.636Z" transform="translate(43.377 -68)" fill="#fcc098"/>
            <path id="路径_5113" data-name="路径 5113" d="M242.951,130.869c1.634,4.049,4.523,7.152,5.776,6.913,0,0-.883-2.578-2.06-6.7-1.365-4.784-1.559-8.157-4.407-7.975C240.965,123.187,241.316,126.82,242.951,130.869Z" transform="translate(-3.105 -68)" fill="#fed5ba"/>
            <path id="路径_5115" data-name="路径 5115" d="M201.4,130.855c-1.634,4.042-4.348,7.165-5.6,6.927a51.879,51.879,0,0,0,2.125-6.839c1.086-4.809,1.318-8.019,4.167-7.838C203.381,123.187,203.03,126.814,201.4,130.855Z" transform="translate(88.425 -68)" fill="#fed5ba"/>
            <path id="路径_5119" data-name="路径 5119" d="M202.422,144.467c5.178,17.019,19.318,17.3,19.318,17.3s14.936-.04,19.4-17.71c2.945-11.659,10.03-29.513,1.536-42.744-4.808-7.488-39.762-10.481-43.88,0S199.385,134.488,202.422,144.467Z" transform="translate(43.2 -68)" fill="#fed5ba"/>
            <path id="路径_5122" data-name="路径 5122" d="M221.8,138.643a3.719,3.719,0,0,1-.911-3.747,30.557,30.557,0,0,0,.488-5.061l.468.014a30.713,30.713,0,0,1-.513,5.25,2.975,2.975,0,0,0,.741,3.029Z" transform="matrix(0.999, 0.035, -0.035, 0.999, 48.63, -72.645)" fill="#848484"/>
            <ellipse id="椭圆_244" data-name="椭圆 244" cx="3.106" cy="2.883" rx="3.106" ry="2.883" transform="translate(250.899 58.324)" fill="#686464"/>
            <path id="路径_5160" data-name="路径 5160" d="M215.643,126.089a2.891,2.891,0,1,1-3.106,2.884A3,3,0,0,1,215.643,126.089Z" transform="translate(61.151 -68)" fill="#686464"/>
            <ellipse id="椭圆_244-2" data-name="椭圆 244" cx="1.607" cy="1.441" rx="1.607" ry="1.441" transform="translate(252.899 60.206)" fill="#fff"/>
            <path id="路径_5160-2" data-name="路径 5160" d="M214.143,126.089a1.45,1.45,0,1,1-1.606,1.442A1.53,1.53,0,0,1,214.143,126.089Z" transform="translate(62.149 -66)" fill="#fff"/>
            <path id="路径_5622" data-name="路径 5622" d="M107.426,185.527s4.5,1.556,11.8,0a6.31,6.31,0,0,1-1.938,3.136,4.416,4.416,0,0,1-2.33.962c-.859.025-.984-.219-1.3-.172s-1.062.172-1.062.172a4.5,4.5,0,0,1-2.778-.962A10.785,10.785,0,0,1,107.426,185.527Z" transform="translate(152 -106)" fill="#de8b81"/>
            <path id="路径_5623" data-name="路径 5623" d="M121.3,185.97a7.278,7.278,0,0,1-5.64,2.125,8.12,8.12,0,0,1-5.173-2.034C112.022,186.346,115.968,186.1,121.3,185.97Z" transform="translate(149.532 -106.298)" fill="#fff"/>
            <path id="路径_12800" data-name="路径 12800" d="M107.426,186.054a1.5,1.5,0,0,0,1.23.411c1.223-.035,4.659-.042,9.656,0l.656-.125.234-.286a5.77,5.77,0,0,0-1.92-.4c-.627-.059-1.471-.12-2.33-.124a7.871,7.871,0,0,0-1.437.218,7.437,7.437,0,0,0-1.469-.209,9.742,9.742,0,0,0-2.231.115A19.626,19.626,0,0,0,107.426,186.054Z" transform="translate(152 -106.527)" fill="#de8b81"/>
          </g>
          <path id="路径_13392" data-name="路径 13392" d="M138.846,193.477c-.411.564-5,36.366-5.487,45.719.365.511,5.018,71.187,5.475,72.218a132.961,132.961,0,0,0,32.15.344c3.432-.3,4.986-1.032,8.6-1.551.3-1.431-4.326-64.362-6.386-93.068s-1.854-21.755-1.854-21.755L154.4,206.347l-7.194-5.342S140.563,191.118,138.846,193.477Z" transform="translate(109.422 -94.628)" fill="#8b72b7"/>
          <g id="组_1701" data-name="组 1701">
            <path id="路径_13394" data-name="路径 13394" d="M153.748,212.464s2.935,9.4,3.452,9.455a24.618,24.618,0,0,0,3.952-.346c.438-.252,2.175-9.624,1.746-9.91a21.273,21.273,0,0,1-4.839,1.328A10.435,10.435,0,0,1,153.748,212.464Z" transform="matrix(0.996, 0.087, -0.087, 0.996, 124.874, -113.031)" fill="#fff"/>
            <path id="路径_13395" data-name="路径 13395" d="M150.273,276.5s5.158-51.76,5.45-52.623,4.123-1.035,4.415,0,6.289,44.687,6.776,51.587-8.162,27.44-8.162,27.44S152.025,284.61,150.273,276.5Z" transform="translate(106.289 -102.286)" fill="#fff"/>
          </g>
          <path id="路径_13398" data-name="路径 13398" d="M142.587,187.418a43.2,43.2,0,0,0,3.117,7.1,55.314,55.314,0,0,0,10.787,10.109s-7.606,3.9-11.991,9.437l-2.44-7.3-2.124-5.43a26.094,26.094,0,0,1,.867-7.944S142.052,187.51,142.587,187.418Z" transform="translate(107.198 -92.945)" fill="#9982c2"/>
          <g id="组_1703" data-name="组 1703">
            <path id="路径_12792" data-name="路径 12792" d="M204.545,65.36l49,2.372-.891,13.914-48.47-5.376Z" transform="matrix(0.996, -0.087, 0.087, 0.996, 4.686, 92.026)" fill="url(#linear-gradient-2)"/>
            <path id="路径_12793" data-name="路径 12793" d="M211.459,72.781l47.048,2.181-.373.17a9.729,9.729,0,0,0-2.3.177,12.787,12.787,0,0,0-5.383,2.054,1.649,1.649,0,0,0-.454,1.485l-18.577,8.48-24.78-13.5Z" transform="matrix(0.996, -0.087, 0.087, 0.996, -1.169, 86.042)" fill="#fff"/>
            <path id="路径_12794" data-name="路径 12794" d="M253.407,78.963l12.5.679,37.254,2.025-1.311,70.6-44.878-11.328Z" transform="matrix(0.996, -0.087, 0.087, 0.996, -52.834, 85.15)" fill="url(#linear-gradient-3)"/>
            <path id="路径_12795" data-name="路径 12795" d="M212.6,83.91a8.708,8.708,0,0,1-2.411,1.666c-1.468.627-4.682.418-4.682.418l-1.323,70.611a16.911,16.911,0,0,0,4.109-1.626,6,6,0,0,0,1.812-1.639Z" transform="matrix(0.996, -0.087, 0.087, 0.996, 44.064, 72.321)" fill="url(#linear-gradient-4)"/>
          </g>
          <path id="路径_5123" data-name="路径 5123" d="M27.266,18.929l-4.781-.848c-6.084-.741-8.111,3.217-13.5,2.366s-4.844-2.669-4.844-2.669C.594,17.53,1.3,13.3,1.3,13.3a4.1,4.1,0,0,1-.18-4.674c-1.3-1.56.206-3.758.206-3.758C1.651,2.415,4.993.532,8.684.365c.125-.008.251-.007.377-.009s.264,0,.4,0,.28.011.421.02q.294.017.589.049l.038,0h0l.033.006c.167.019.336.035.5.062,4.505.739,17.075,5.657,17.075,5.657C28.755,14.537,27.266,18.929,27.266,18.929Z" transform="translate(279.283 190.804) rotate(161)" fill="#ffcca9"/>
          <path id="路径_13418" data-name="路径 13418" d="M4.676,15.335A119.869,119.869,0,0,1,24.049,19.08c4.679,1.28,7.976,3.132,13.463,5.222S48.5,28.755,48.5,28.755L55.41,7.984s-5.95-1.842-15.05-4.04A144.243,144.243,0,0,0,18.333.64C6.175-.066-.505,1.49-.505,1.49s4.742,4.515,3.434,8.2A4.764,4.764,0,0,0,4.676,15.335Z" transform="translate(254.583 195.82) rotate(-177)" fill="#fff"/>
          <path id="路径_13419" data-name="路径 13419" d="M179.558,187.123s-10.36,12.008-16.708,16.244c0,0,9.91,6.594,13.111,10.243,0,0,4.6-10.261,4.294-13.723Z" transform="translate(101.065 -91.596)" fill="#9982c2"/>
          <path id="路径_13438" data-name="路径 13438" d="M138.531,258.384l-4.175-86.131s26.206,6.084,32.638,11.461c2.907,2.431,8.61,23.452,11.984,35.108,3.923,13.55,7.746,19.241,7.666,27.969s-4.62,18.879-9.111,30.662-8.025,14.848-8.025,14.848-3.85.46-5.341-.561c.49,6.552,2.341,33.946,2.341,33.946H149.13s-6.569-33.972-6.439-35.3C142.767,289.592,138.531,258.384,138.531,258.384Z" transform="translate(146.091 -77.181)" fill="#fff"/>
          <path id="路径_13439" data-name="路径 13439" d="M170.544,308.109l-2.241,2.644s4.51,10.734,9.516,16.394l4.06-5.492A47.149,47.149,0,0,1,170.544,308.109Z" transform="translate(129.061 -106.258)" fill="#fed5ba"/>
          <path id="路径_13440" data-name="路径 13440" d="M170.347,214.485c.016-.377,1.876,31.321,2.673,35.469l-6.181,24.365-.6,2.153s1.239,13.024.6,11.332c-.814-2.147-1.6-11.536-2.112-15.563l6.45-22.287S170.053,221.539,170.347,214.485Z" transform="translate(133.356 -86.052)" fill="#8fa7d7" opacity="0.24"/>
          <path id="路径_13442" data-name="路径 13442" d="M295.946,248.505l-6.988-34.332s-13.952,3.076-19.551,3.134-21.157-1.62-21.157-1.62l.173,32.818Z" fill="#747474"/>
        </g>
      </g>
    </g>
    <path id="联合_48" data-name="联合 48" d="M-5242.031,691.291c-.8-1.965-1.8-6.194-4.334-9.73a10.287,10.287,0,0,1-5.589,1.44c-.02-.005-.024-.031,0-.036.1-.024.2-.048.3-.07a.029.029,0,0,1,.016-.047,12.357,12.357,0,0,0,3.953-3.052c-.02-.028-.04-.056-.062-.084a12.243,12.243,0,0,1-3.143,1.489,21.556,21.556,0,0,1-4.228.846,28.989,28.989,0,0,1-3.178.081c-.527-.007-1.058-.013-1.591,0-.036.008-.073.019-.11.028a.039.039,0,0,1-.053-.04.045.045,0,0,1,.019-.084c.092-.017.184-.028.278-.041,1.746-.6,3.41-2.328,4.921-3.283.54-.344,1.063-.708,1.564-1.1a26.306,26.306,0,0,1-8.717,3.592c-2.728.429-3.324,1.03-4.874,1.427a18.043,18.043,0,0,1-6.761.272c-.156.016-.31.033-.465.043-.062,0-.067-.077-.006-.081,1.869-.186,5.386-3.757,6.882-4.607-1.415.427-4.986,2.391-6.41,2.8-1.884-.769-2.851,2.239-4.555,2.633a1.458,1.458,0,0,1-.942-.326c-1.092.965-2.067,1.439-3.074.992-1.312,1.375-2.873,3.065-2.873,3.065s.04-.965.124-2a27.493,27.493,0,0,0-1.842,4.143,2.983,2.983,0,0,1-.316.641c0,4.768.259,9.726.259,9.726s-.717-2.521-1.538-5.821c0,.27-.01.456-.052.456-.012,0-.027-.016-.044-.049-1.387-2.628-3.6-5.63-4.266-7.684a13.846,13.846,0,0,1,0-4.456,9.645,9.645,0,0,1,.7-2.666c-1.758-2.826-.765-9.246,6.584-15.539,13.767-11.788,35.628-7.023,38.689,0,3.02,2.112,6.195,2.446,7.711,8.515s1.729,9.454.813,14.016a34.121,34.121,0,0,1-1.8,5.937.88.88,0,0,1-.153.245c-.917,3.887-1.851,7.226-1.851,7.226S-5241.942,695.616-5242.031,691.291Z" transform="translate(5342.521 -655.461)" fill="#b7b7b7" stroke="rgba(0,0,0,0)" stroke-miterlimit="10" stroke-width="1"/>
    <path id="路径_13447" data-name="路径 13447" d="M6752.268,1688.1l-.075,1.571-.174,1.882a1.123,1.123,0,0,0-1.054.9l-.671,1.987a8.828,8.828,0,0,1-2.3,4.31,6.694,6.694,0,0,1-2.429,1.505,8.716,8.716,0,0,1-2.94.475h-.092a13.219,13.219,0,0,1-3.973-.685,11.51,11.51,0,0,1-3.169-1.668,12.207,12.207,0,0,1-3.906-5.059l-.105.082-1.061-2.636s-.391-1.365-1.154-1.421l-1.214-.157-1.212.157c-.761.056-1.151,1.421-1.151,1.421l-1.059,2.636-.1-.082a12.2,12.2,0,0,1-3.9,5.059,11.49,11.49,0,0,1-3.161,1.668,13.17,13.17,0,0,1-3.964.685h-.091a8.674,8.674,0,0,1-2.933-.475,6.67,6.67,0,0,1-2.423-1.505,8.831,8.831,0,0,1-2.293-4.31l-.669-1.987a1.121,1.121,0,0,0-1.053-.9l-.173-1.882-.074-1.571,1.019-.071c.727-.025,1.9-1.375,1.9-1.375,1.634-1.5,8.167-1.31,8.167-1.31l13.177.2,13.208-.2s6.547-.186,8.185,1.31c0,0,1.172,1.35,1.9,1.375Zm-27.5.742c-1.449-2.393-4.834-2.774-4.834-2.774-1.7-.374-8.408-.087-8.408-.087-4.235.037-5.311,1.744-5.311,1.744-.694.536-.854,2.605-.854,2.605a18.231,18.231,0,0,0,.38,4.09c1,4.084,3.585,6.225,7.562,6.225h.095a11.725,11.725,0,0,0,10.953-7.379l-.064-.05A6.361,6.361,0,0,0,6724.771,1688.846Zm6.2-.755a10.5,10.5,0,0,1,2.184-1.6.425.425,0,0,0,.224-.274s.024-.274-.5-.262l-.521.012-4.362.012h-.093l-4.352-.012-.52-.012c-.52-.012-.5.262-.5.262a.424.424,0,0,0,.223.274,10.469,10.469,0,0,1,2.179,1.6,1.268,1.268,0,0,0,.867.361l2.1-.035v0H6728v0l2.1.035A1.273,1.273,0,0,0,6730.971,1688.092Zm19.621,2.244s-.162-2.069-.856-2.605c0,0-1.079-1.707-5.323-1.744,0,0-6.727-.287-8.427.087,0,0-3.393.381-4.845,2.774a6.351,6.351,0,0,0,.483,4.375l-.064.05a11.748,11.748,0,0,0,10.978,7.379h.095c3.985,0,6.577-2.141,7.58-6.225A18.259,18.259,0,0,0,6750.592,1690.335Z" transform="translate(-6649.855 -1650.515)" fill="#848484"/>
  </g>
</svg>
