<svg xmlns="http://www.w3.org/2000/svg" xmlns:xlink="http://www.w3.org/1999/xlink" width="48" height="57" viewBox="0 0 48 57">
  <defs>
    <clipPath id="clip-plants">
      <rect width="48" height="57"/>
    </clipPath>
  </defs>
  <g id="plants" clip-path="url(#clip-plants)">
    <g id="组_1710" data-name="组 1710" transform="translate(-30 -194)">
      <path id="路径_13035" data-name="路径 13035" d="M395.044,379.386a45.72,45.72,0,0,1,14.433,2,1.244,1.244,0,0,1,.693,1.518,1.054,1.054,0,0,1-1.346.781c-.168-.059-12.032-4.178-29.2.031a1.081,1.081,0,0,1-1.274-.924,1.216,1.216,0,0,1,.819-1.436A66.688,66.688,0,0,1,395.044,379.386Z" transform="translate(-339.745 -151.32)" fill="#3763a6"/>
      <path id="路径_13036" data-name="路径 13036" d="M378.07,337.636c.154-.332,4.155-11.7,2.582-11.869s1.566-4.47,0-6.438-5.43-3.562-6.265-1.433-1.461,2.635-1.633,1.047-.242-4.084-3.7-3.526-3.493-1.513-4.788-1.387c-1.119.109-1.4,1.216-2.212,2.443s-2.271,1.293-2.4,1.972c-.923,4.992,8.614,4.818,9.588,6.194s-5.643,3.163-2.734,4.408,8.271,2.111,6.448,2.627c-.388.11-5.66-2.295-5.387,1.965C367.7,335.7,378.07,337.636,378.07,337.636Z" transform="translate(-329.004 -117.339)" fill="#08c434"/>
      <path id="路径_13037" data-name="路径 13037" d="M389.887,348.847s-1.756-16.3-9.374-18.73" transform="translate(-339.797 -127.226)" fill="none" stroke="#ceebff" stroke-linecap="round" stroke-miterlimit="10" stroke-width="0.1"/>
      <path id="路径_13038" data-name="路径 13038" d="M403.212,353.8c.282-.19,8.239-8.418,6.96-9.422s-1.17.278-2.273.469,2.747-10.7,1.067-9.4-1.5,4.272-2.27,3.135,2.384-11.472.595-11.455-1.637,4.447-2.808,3.836-5.644-7.6-8.694-3.983,2.779,2.96,3,4.636-7.321,1.967-5.381,4.6,9.909,10.412,8.108,9.832c-.384-.123.777-6.311-.914-2.638C399.778,345.187,403.212,353.8,403.212,353.8Z" transform="translate(-349.07 -123.498)" fill="#08c434"/>
      <path id="路径_13039" data-name="路径 13039" d="M412.041,366.713s5.643-16.571.04-22.823" transform="translate(-358.489 -132.743)" fill="none" stroke="#ceebff" stroke-linecap="round" stroke-miterlimit="10" stroke-width="0.3"/>
      <path id="路径_13040" data-name="路径 13040" d="M418.762,370.214c-.077-.359-.832-12.714.434-12.544s.57,1.09,1.143,2.062,1.956-9.554,2.331-7.286.457,3.61,1.48,3.3c.619-.189-5.777-19.087-1.48-21.263s2.9,10.825,8.7,9.151-3.144,7.423-2.136,7.82,10.147-4.638,8.1.776-9.576,6.36-10.532,7.506,6.431,2.055,3.962,2.663-8.536,2.15-7.162,3.042c.292.19,4.788-1.058,4,3.069C427.227,370.505,418.762,370.214,418.762,370.214Z" transform="translate(-362.063 -134.768)" fill="#08c434"/>
      <path id="路径_13041" data-name="路径 13041" d="M415.433,382.769s5.861-17.1,13.868-17.777" transform="translate(-363.375 -143.132)" fill="none" stroke="#ceebff" stroke-linecap="round" stroke-miterlimit="10" stroke-width="0.3"/>
      <path id="路径_13042" data-name="路径 13042" d="M415.891,349.606c-.086-.2,2.5-8.01,3.133-14.736.393-4.171-1.307-7.993-.661-8.04,1.576-.115.853.948,1.692,1.779s2.943-11.071,3.725-8.918-.832,4.664.377,4.126,3.632-11.532,5.137-10.442-.8,4.9.487,5.065,8.516-3.3,9.316,1.721-9,5.52-10.007,6.865,4.809,2.152,1.87,3.306-7.9,2.6-6.093,3.176c.385.122,5.715-2.116,5.337,2.133-.089,1-6.012,4.586-9.672,7.93A19.148,19.148,0,0,0,415.891,349.606Z" transform="translate(-361.729 -118.318)" fill="#4b84c5"/>
      <path id="路径_13043" data-name="路径 13043" d="M419.009,356.215s3.358-21.557,11.165-24.1" transform="translate(-363.363 -126.713)" fill="none" stroke="#ceebff" stroke-linecap="round" stroke-miterlimit="10" stroke-width="0.1"/>
      <path id="路径_13044" data-name="路径 13044" d="M377.672,362.745c.025-.088,7.509.831,7.416-.351-.159-1.966-7.821-7.4-5.948-8.885,1.174-.929-.419-2.023-1.468-3a4,4,0,0,1-1.506-2.187c-.144-1.292-2.651-1.336-3.693-1.64s-2.619-3.7-3.748-2.585-.348,1.9-1.39,2.2-7.3-1.725-7.471,2.639,7.905,3.552,8.861,4.567-3.736,2.436-1.216,3.045,8.621,1.756,7.333,2.322c-3.618.258-6.131-.165-6.117,1a.826.826,0,0,0,0,1.344C369.072,362.95,377.672,362.745,377.672,362.745Z" transform="translate(-324.195 -129.206)" fill="#4b84c5"/>
      <path id="路径_13045" data-name="路径 13045" d="M393.851,376.588s-3.993-15.34-11.978-16.287" transform="translate(-336.718 -141.789)" fill="none" stroke="#ceebff" stroke-linecap="round" stroke-miterlimit="10" stroke-width="0.3"/>
      <path id="路径_13046" data-name="路径 13046" d="M402.127,403.483l-.57.136a36.7,36.7,0,0,1-16.122.136h0l-4.655-18.536h0a59.783,59.783,0,0,0,25.2.183l.871-.183Z" transform="translate(-339.038 -154.232)" fill="#014ab8"/>
      <path id="路径_13427" data-name="路径 13427" d="M412.041,348.095s1.434-3.053.01-4.2" transform="translate(-364.419 569.253) rotate(-79)" fill="none" stroke="#ceebff" stroke-linecap="round" stroke-miterlimit="10" stroke-width="0.1"/>
      <path id="路径_13428" data-name="路径 13428" d="M412.041,347.779s1.434-2.824.01-3.889" transform="translate(-369.109 560.314) rotate(-79)" fill="none" stroke="#ceebff" stroke-linecap="round" stroke-miterlimit="10" stroke-width="0.1"/>
      <path id="路径_13429" data-name="路径 13429" d="M-.329-.616S1.434,1.96.01,2.7" transform="matrix(-0.891, -0.454, 0.454, -0.891, 52.456, 223.395)" fill="none" stroke="#ceebff" stroke-linecap="round" stroke-miterlimit="10" stroke-width="0.1"/>
      <path id="路径_13430" data-name="路径 13430" d="M412.041,347.444s1.434-2.581.01-3.554" transform="translate(-437.994 8.035) rotate(-18)" fill="none" stroke="#ceebff" stroke-linecap="round" stroke-miterlimit="10" stroke-width="0.1"/>
      <path id="路径_13431" data-name="路径 13431" d="M-.329-.616S1.434,1.96.01,2.7" transform="matrix(-0.53, -0.848, 0.848, -0.53, 60.002, 214.066)" fill="none" stroke="#ceebff" stroke-linecap="round" stroke-miterlimit="10" stroke-width="0.1"/>
      <path id="路径_13047" data-name="路径 13047" d="M381.586,388.4a55.3,55.3,0,0,0,13.394,1.491A74.433,74.433,0,0,0,410,388.312l.6-2.3a1.029,1.029,0,0,0-.194.022c-17.169,3.744-29.033.08-29.2.027a1.085,1.085,0,0,0-.216-.045Z" transform="translate(-341.224 -154.631)" fill="#073a87"/>
      <path id="路径_13048" data-name="路径 13048" d="M393.5,388.287a45.72,45.72,0,0,1-14.433-2,1.244,1.244,0,0,1-.693-1.518,1.053,1.053,0,0,1,1.346-.781c.168.06,12.032,4.178,29.2-.03a1.079,1.079,0,0,1,1.274.923,1.215,1.215,0,0,1-.819,1.436A66.688,66.688,0,0,1,393.5,388.287Z" transform="translate(-339.745 -153.589)" fill="#014ab8"/>
    </g>
  </g>
</svg>
