<?xml version="1.0" standalone="no"?><!DOCTYPE svg PUBLIC "-//W3C//DTD SVG 1.1//EN" "http://www.w3.org/Graphics/SVG/1.1/DTD/svg11.dtd"><svg t="1609818957653" class="icon" viewBox="0 0 1024 1024" version="1.1" xmlns="http://www.w3.org/2000/svg" p-id="2031" xmlns:xlink="http://www.w3.org/1999/xlink" width="32" height="32"><defs><style type="text/css"></style></defs><path d="M1024 489.024 904.512 574.4 904.512 525.44 799.552 525.44 799.552 646.4 765.952 646.4 765.952 331.52 799.552 331.52 799.552 452.48 904.512 452.48 904.512 403.584Z" p-id="2032" fill="#fd7e14"></path><path d="M732.288 277.76l0 522.24L0 800 0 277.76l366.208 284.096L732.288 277.76zM646.4 734.72l0-26.88L448.32 707.84l0 26.88L646.4 734.72zM646.4 673.28 646.4 646.4 448.32 646.4l0 26.88L646.4 673.28zM646.4 614.72l0-26.88L448.32 587.84l0 26.88L646.4 614.72z" p-id="2033" fill="#fd7e14"></path><path d="M732.288 224 366.208 512 0 224Z" p-id="2034" fill="#fd7e14"></path></svg>